<?xml version="1.0" encoding="utf-8"?>
<!-- Generator: Adobe Illustrator 21.0.0, SVG Export Plug-In . SVG Version: 6.00 Build 0)  -->
<svg version="1.1" id="Layer_1" xmlns="http://www.w3.org/2000/svg" xmlns:xlink="http://www.w3.org/1999/xlink" x="0px" y="0px"
	 viewBox="0 0 800 800" style="enable-background:new 0 0 800 800;" xml:space="preserve">
<style type="text/css">
	.st0{fill:#F9EEB7;stroke:#000000;stroke-miterlimit:10;}
	.st1{fill:#89835D;stroke:#000000;stroke-miterlimit:10;}
	.st2{fill:#23485E;}
	.st3{font-family:'FranklinGothic-Heavy';}
	.st4{font-size:125.1853px;}
</style>
<rect x="146.5" class="st0" width="540" height="337"/>
<path class="st1" d="M681.6,367.2c3.4-1.6,5.3-5.1,4.8-8.8c-1.4-10-9.3-25.8-48.3-12.5c-50.2,17-84.2,101.8-89.3,114.8
	c-0.5,1.3-1.2,2.3-2.2,3.2c-5.1,4.6-20.6,14.7-21.1-32.4c0-1.4-0.4-2.8-1.1-4c-1.6-2.9-4.7-8.5-6.8-12.6
	c-2.9-5.5,47.1-265.8,51.9-291c0.3-1.4,0.2-2.8-0.3-4.2c-2.4-7.3-11.9-28.3-38.2-6.9c-1.1,0.9-2,2-2.5,3.3
	c-4.1,9.8-23,56.9-39.6,137.5c0,0.2-0.1,0.4-0.1,0.5c-1.1,3.9-14.2,51.4-24.6,79.3c0,0-4.2,13.5-16.8,2.8c-1.9-1.6-3-4-3-6.4V81.6
	c0-1.7-0.6-3.5-1.6-4.9c-5.8-8.2-26.9-33.2-46.7,0.5c-0.7,1.2-1.1,2.5-1.2,3.9l-12.7,252.1c0,0,0,16.5-6.9-7.8l-32.6-128.4
	c-0.1-0.3-0.1-0.6-0.2-0.9l-11.4-82.5c-0.3-2.3-1.6-4.4-3.5-5.8c-9.7-7-38.8-24.2-35.5,23.7l25.3,226.6c0.2,2.1-0.3,4.3-1.7,6l0,0
	c-4,5.3-12.2,4.5-15-1.6l-67.7-148.8c-0.8-1.8-2.3-3.3-4-4.2c-6.7-3.2-23.1-8.9-24.7,11.4c-0.1,1.1,0,2.1,0.4,3.2L255.6,386
	c0.1,0.5,0.3,1,0.3,1.5l18.7,145.7c0,0,8.8,56.5,37.9,111.5c0.4,0.8,0.7,1.6,0.8,2.3l9.3,47.1c0.8,4,4.3,6.9,8.6,6.9h159.6
	c4.9,0,8.9-4.1,8.7-8.9l-1.5-38.2c-0.1-2.1,0.7-4.3,2.2-5.9L600,534.7c1-1.1,1.7-2.4,2-3.8C605.8,513.1,634,389.9,681.6,367.2z"/>
<path class="st1" d="M553.5,451"/>
<text transform="matrix(1.0868 0 0 1 270.0005 800)" class="st2 st3 st4">LEFT</text>
</svg>
