<?xml version="1.0" encoding="utf-8"?>
<!-- Generator: Adobe Illustrator 21.0.0, SVG Export Plug-In . SVG Version: 6.00 Build 0)  -->
<svg version="1.1" id="Layer_1" xmlns="http://www.w3.org/2000/svg" xmlns:xlink="http://www.w3.org/1999/xlink" x="0px" y="0px"
	 viewBox="0 0 800 800" style="enable-background:new 0 0 800 800;" xml:space="preserve">
<style type="text/css">
	.st0{fill:#F9EEB7;stroke:#000000;stroke-miterlimit:10;}
	.st1{fill:#89835D;stroke:#000000;stroke-miterlimit:10;}
	.st2{fill:#23485E;}
	.st3{font-family:'FranklinGothic-Heavy';}
	.st4{font-size:125.1853px;}
</style>
<rect x="146.5" class="st0" width="540" height="337"/>
<path class="st1" d="M213,530.9c0.3,1.4,1,2.7,2,3.8l99.9,113.2c1.5,1.6,2.3,3.8,2.2,5.9l-1.5,38.2c-0.2,4.9,3.8,8.9,8.7,8.9h159.6
	c4.2,0,7.8-2.9,8.6-6.9l9.3-47.1c0.1-0.8,0.4-1.6,0.8-2.3c29.1-55,37.9-111.5,37.9-111.5l18.7-145.7c0-0.5,0.2-1,0.3-1.5l50.7-161.8
	c0.4-1.1,0.5-2.1,0.4-3.2c-1.6-20.4-18-14.6-24.7-11.4c-1.8,0.9-3.3,2.3-4,4.2L514,362.5c-2.8,6-11.1,6.9-15,1.6l0,0
	c-1.4-1.7-1.9-3.9-1.7-6l25.3-226.6c3.4-47.8-25.8-30.7-35.5-23.7c-1.9,1.5-3.2,3.5-3.5,5.8l-11.4,82.5c-0.1,0.3-0.1,0.6-0.2,0.9
	l-32.6,128.4c-6.9,24.3-6.9,7.8-6.9,7.8L419.9,81c-0.1-1.4-0.5-2.7-1.2-3.9c-19.8-33.7-40.9-8.7-46.7-0.5c-1,1.5-1.6,3.2-1.6,4.9
	v248.1c0,2.4-1.1,4.8-3,6.4c-12.5,10.7-16.8-2.8-16.8-2.8c-10.4-27.8-23.5-75.4-24.6-79.3c0-0.1-0.1-0.3-0.1-0.5
	C309.4,173,290.5,125.8,286.4,116c-0.5-1.3-1.4-2.4-2.5-3.3c-26.3-21.4-35.8-0.4-38.2,6.9c-0.5,1.4-0.6,2.8-0.3,4.2
	c4.8,25.2,54.8,285.5,51.9,291c-2.1,4.1-5.2,9.7-6.8,12.6c-0.7,1.2-1.1,2.6-1.1,4c-0.5,47.1-16,37-21.1,32.4c-1-0.9-1.7-1.9-2.2-3.2
	c-5-13-39.1-97.8-89.3-114.8c-39-13.3-46.9,2.5-48.3,12.5c-0.5,3.7,1.5,7.2,4.8,8.8C181,389.9,209.2,513.1,213,530.9z"/>
<path class="st1" d="M553.5,451"/>
<text transform="matrix(1.0868 0 0 1 217.0005 800)" class="st2 st3 st4">RIGHT</text>
</svg>
