<?xml version="1.0" encoding="utf-8"?>
<!-- Generator: Adobe Illustrator 21.0.0, SVG Export Plug-In . SVG Version: 6.00 Build 0)  -->
<svg version="1.1" id="Layer_1" xmlns="http://www.w3.org/2000/svg" xmlns:xlink="http://www.w3.org/1999/xlink" x="0px" y="0px"
	 viewBox="0 0 800 800" style="enable-background:new 0 0 800 800;" xml:space="preserve">
<style type="text/css">
	.st0{fill:#F9EEB7;stroke:#000000;stroke-miterlimit:10;}
	.st1{fill:#365266;}
	.st2{font-family:'FranklinGothic-Heavy';}
	.st3{font-size:184.1883px;}
	.st4{fill:#89835D;stroke:#000000;stroke-miterlimit:10;}
</style>
<rect x="210" class="st0" width="427" height="293"/>
<text transform="matrix(0.876 0 0 1 103.999 797.5205)" class="st1 st2 st3">THUMBS</text>
<g>
	<path class="st4" d="M588.9,381.6"/>
	<g>
		<g>
			<path class="st4" d="M336.1,318.6c0,0,94.5-23.3,74.6,95.7c0,0,20.4,14,2.8,81.7c0,0,4.7,23.3-10.2,56c0,0-10.8,68.6-93.7,29.6
				C309.6,581.6,406.5,353.9,336.1,318.6z"/>
			<path class="st4" d="M80,659.3l57.2-88.7c0,0,42.3-156.4,52.2-228.7c0,0-2.5-49,64.7-42c0,0,14.5,45.2-29.8,70
				c0,0,64.6,2.3,33.6-205.9c-0.5-3.3-1-6.6-1.5-10c0,0,47.5-96.8,107.1,0c0,0-22.5,57.1-15.1,164.8c2.1,30.8,6.8,65.8,15.1,104.7
				c0,0,37.3,51.3-69.6,177.4c0,0-48.4,23.3-69,72.3L80,659.3z"/>
		</g>
		<ellipse cx="393.6" cy="411.4" rx="18.2" ry="2.2"/>
		<ellipse cx="400.1" cy="496.8" rx="19.4" ry="2.8"/>
		<ellipse cx="373.3" cy="554.6" rx="26.7" ry="2.7"/>
		<ellipse class="st0" cx="295.6" cy="230.4" rx="24.2" ry="1.3"/>
		<ellipse class="st0" cx="308.9" cy="221" rx="10.9" ry="0"/>
	</g>
	<g>
		<g>
			<path class="st4" d="M518.9,325.9c0,0-94.5-23.1-74.6,94.7c0,0-20.4,13.9-2.8,80.8c0,0-4.7,23.1,10.2,55.4
				c0,0,10.8,67.9,93.7,29.3C545.4,586.1,448.5,360.9,518.9,325.9z"/>
			<path class="st4" d="M775,663l-57.2-87.7c0,0-42.3-154.7-52.2-226.3c0,0,2.5-48.5-64.7-41.6c0,0-14.5,44.7,29.8,69.3
				c0,0-64.6,2.2-33.6-203.7c0.5-3.2,1-6.5,1.5-9.9c0,0-47.5-95.8-107.1,0c0,0,22.5,56.5,15.1,163.1c-2.1,30.5-6.8,65.1-15.1,103.6
				c0,0-37.3,50.8,69.6,175.5c0,0,48.4,23.1,69,71.6L775,663z"/>
		</g>
		<ellipse cx="461.4" cy="417.7" rx="18.2" ry="2.2"/>
		<ellipse cx="454.9" cy="502.2" rx="19.4" ry="2.8"/>
		<ellipse cx="481.7" cy="559.5" rx="26.7" ry="2.7"/>
		<ellipse class="st0" cx="559.4" cy="238.6" rx="24.2" ry="1.3"/>
		<ellipse class="st0" cx="546.1" cy="229.3" rx="10.9" ry="0"/>
	</g>
</g>
</svg>
