<!-- Generator: Adobe Illustrator 19.2.0, SVG Export Plug-In  -->
<svg version="1.1"
	 xmlns="http://www.w3.org/2000/svg" xmlns:xlink="http://www.w3.org/1999/xlink" xmlns:a="http://ns.adobe.com/AdobeSVGViewerExtensions/3.0/"
	 x="0px" y="0px" width="920px" height="234px" viewBox="0 0 920 234" style="enable-background:new 0 0 920 234;"
	 xml:space="preserve">
<style type="text/css">
	.st0{fill:#003D4C;}
	.st1{fill:#7CC242;}
	.st2{fill:#FFFFFF;}
</style>
<defs>
</defs>
<polyline class="st0" points="920,234 535.059,234 315.97,0 920,0 "/>
<polyline class="st1" points="0,0 315.921,0 535.055,234 0,234 "/>
<path class="st0" d="M172.382,59.098c-1.192-8.23-6.245-5.827-5.493-8.588c0.238-0.883-0.706-4.458-5.961-4.458H58.253v59.688
	c1.139,0.453,4.943-0.337,5.702-1.087c3.214-3.862,6.091-8.963,11.273-10c1.543-0.273,3.543-0.43,4.618,0.785
	c-0.549,1.197-2.11,1.029-3.191,1.427c-3.461,1.064-7.004,2.735-9.248,6.016c-0.157,0.323-0.09,0.747,0.192,0.991
	c0.433,0.035,0.782-0.064,1.154-0.169c1.726-1.25,3.392-2.935,5.679-2.589c0.36,0.116,0.596,0.57,0.36,0.892
	c-1.427,1.659-3.502,2.124-5.254,3.194c-2.342,1.883-8.806,3.456-9.614,6.609c-0.032,0.128,3.107,0.392,3.333,0.407
	c3.02,0.198,3.825-3.351,6.109-4.888c0.886-0.573,1.999-1.343,3.037-0.793c0.128,0.488-0.259,0.761-0.372,1.151
	c-2.711,2.822-6.106,4.56-8.777,7.454c-0.811,0.889-4.397,1.915-4.929,2.839v11.079c2.273-3.563,7.844-8.248,11.82-10.468
	c0.421-0.084,1.116-0.276,1.439,0.198c0.52,0.619,0.116,1.52,0,2.194c-1.642,2.86-3.976,5.423-5.429,8.352
	c-0.212-1.348,0.305-2.589,0.872-3.714c0.119-0.224,0.232-0.663-0.041-0.817c-1.226,0-1.802,1.386-2.238,2.209
	c-1.479,3.685-5.81,7.463-6.495,11.468v50.437h32.43c1.784-1.613,4.022-3.775,5.214-5.905c1.456-2.026,1.828-4.784,3.61-6.507
	c0.299-0.122,0.5-0.23,0.788,0c0.991,2.084,0.276,4.737-0.631,6.594c-0.514,1.285-1.659,2.276-1.72,3.787
	c-0.017,0.395,0.889,0.421,1.302,0.084c3.301-2.703,3.842-7.254,4.83-11.326c0.148-0.171,0.148-0.596,0.482-0.561
	c0.416,0.474,0.244,1.369,0.148,1.982c-0.096,0.57-0.456,1.151-0.323,1.697c1.607,0.657,1.744-1.686,2.412-2.656
	c0.227,0.096,0.52,0.174,0.578,0.471c0.212,2.186-0.729,4.089-2.177,5.475c-0.541,0.517-1.906,0.825-1.607,1.697
	c0.221,0.642,1.293,0.541,1.93,0.395c0.142,0.111,0.273,0.192,0.084,0.567c-0.645,1.276-2.86,3.339-3.982,4.205h6.089
	c3.136-1.947,6.222-4.763,8.597-7.789l-0.096-0.096l0.363-0.177c1.627-2.31,3.145-4.664,4.725-7.01
	c1.334-2.589,2.903-5.362,2.002-8.53c-0.732-1.79-2.714-1.064-4.165-0.985c-0.7-0.384-1.479-0.663-2.049-1.401
	c-0.308-0.488-0.137-1.296-0.683-1.61c-1.45-0.41-2.601,0.918-3.653,1.947c-0.416,0.227-0.939,0.666-1.322,0.352
	c-0.102-2.898,2.639-4.67,3.104-7.347c-0.081-0.529-0.488-0.764-0.883-1.101c-1.985-0.012-2.947,2.002-4.333,3.124l-0.639,0.09
	c-0.375-0.413-0.459-1.011-0.369-1.616c0.267-1.819,1.386-3.363,2.572-4.848c4.438-7.103,14.182-7.048,14.182-7.048
	c9.213,0,15.415,5.949,16.946,5.949c0.256,0,1.273-0.5,1.221-1.991c-0.046-1.302-0.639-2.706-1.517-2.831
	c-0.416-0.058,0.625,1.142-1.5,0.66c-8.164-1.857-13.976-7.411-13.47-12.494c0.497-5.022-0.555-7.39,8.835-11.366
	c1.401-0.596,3.421-0.706,3.022-4.292c0,0-0.305-1.099-1.069-1.099c-0.363,0-0.91,0.25-0.883,0.796c0,0,0.48,0.886-0.785,0.886
	c-1.116,0-0.59-1.436-3.74-1.436c-2.444,0-3.418,0.506-3.418,0.506c-1.761,0.729-3.758,0.552-3.758,0.552s-2.124,0.145-3.644-0.639
	c0,0-0.715-0.392-3.601-0.468c-3.06-0.084-2.587,1.476-3.705,1.482c-0.636,0.006-0.825-0.477-0.68-1.177
	c0.07-0.337,0.511-0.747-1.375-2.081c-1.317-0.933-0.895-2.645-0.622-3.153c1.706-3.171,1.947-4.586,2.151-5.934
	c0.357-2.424-3.967-7.428-4.778-8.942c-1.386-2.592,0.096-3.639-5.202-4.214c-5.557-0.607-6.905-4.609-6.96-5.81
	c-0.012-0.299,0.134-0.854,0.95-0.416c1.755,0.942,3.191,4.327,5.952,4.327c2.982,0,5.873,0.552,6.42,1.674
	c1.229,2.534,2.587,3.052,3.278,3.107c1.985,0.157-0.604-4.313,0.148-5.118c0.448-0.564,1.16-0.398,1.834-0.238
	c1.732,0.413,4.013,1.471,4.81,2.773c0.241,0.392,1.688,0.183,1.901-0.66c0.988-3.915,2.258-3.787,4.086-3.508
	c1.418,0.215,1.918,0.305,1.918,2.389c0,1.561,1.055,1.93,2.122,1.677c1.648-0.395,2.52-3.775,4.351-3.912
	c0.436-0.032,0.674,0.038,0.814,0.401c0.174,0.456-1.421,1.776-0.95,2.726c0.366,0.741,0.828-0.45,1.378-0.171
	c1.34,0.677,0.509,3.627,1.813,3.56c1.657-0.084,1.395-1.279,2.249-2.348c0.95-1.183,1.625-1.433,2.7-1.793
	c2.735-0.91,6.083-1.63,8.495-2.924c6.152-3.438,2.31-12.598-2.682-18.446c-1.226-1.436,0.587-2.621,2.119-1.087
	c2.979,2.985,4.441,7.376,6.71,7.376c1.119,0.029,7.946-1.61,11.035-4.545C171.444,69.322,173.033,63.611,172.382,59.098
	 M100.064,132.174c2.113-3.9,10.239-10.282,14.522-9.067c6.998,1.988,8.222,7.832,8.428,10.18
	c0.788,8.937-10.483,14.22-11.07,13.883c-0.445-0.256,0.131-0.779,0-1.232c-0.067-0.314-0.357-0.468-0.604-0.453
	c-2.464,0.151-2.621,3.479-4.275,4.955c-0.48,0.073-0.764-0.387-1.154-0.628c-0.904-1.43,1.447-1.363,1.764-2.476
	c0.189-0.689,0.203-1.671-0.264-2.058c-0.48-0.395-1.212-0.349-1.848,0.113c-0.913,0.66-0.956,2.444-2.151,1.944
	c-0.302-0.128-0.718-1.503-0.517-1.976c1.229-1.529,3.499-1.232,3.726-3.531c0.14-1.398,1.229-1.232,1.962-1.517
	c0.732-0.407,0.814-1.232,1.072-1.988c0.57-1.654,2.156-1.337,2.29-2.252c0.073-0.509-0.099-1.02-0.604-1.348
	c-0.779-0.18-1.369,0.174-1.877,0.543c-0.427,0.314-0.174,1.119-0.788,1.447c-0.715,0.387-1.378,0.433-2.081,0.616
	c-1.084,0.387-1.11,1.465-1.351,2.584c-0.125,0.572-1.264,0.363-1.741,0.491c-1.078,0.288-1.346,1.43-1.752,2.38
	c-0.02,0.049-0.067,0.235-0.198,0.235c-0.427,0-0.852-0.453-1.133-0.727c-0.25-0.244-0.439-0.68-0.186-0.994
	c0.183-0.224,0.404-0.465,0.724-0.532c0.657-0.142,1.148-1.003,0.962-1.688c-0.349-1.276,1.209-1.75,1.255-2.226
	c0.041-0.418-0.122-0.883-0.546-1.142c-0.974-0.593-1.729,0.541-2.656,0.895c-0.279,0.108-0.77-0.346-0.898-0.727
	C98.928,134.543,99.599,133.354,100.064,132.174 M91.267,50.958c4.397,1,8.44,3.47,11.186,7.329
	c2.151,3.325,2.918,7.725,6.835,9.864c0.439,0.503,1.133,0.822,1.764,1.072c-0.822,0.015-1.712-0.346-2.476-0.712
	c-0.346-0.07-0.671-0.581-1.075-0.244c-0.267,0.105-0.137,0.387-0.157,0.61c0.25,0.296,0.602,0.471,0.886,0.779
	c-0.192,0.209-0.381,0.352-0.541,0.613c-4.057-1.596-4.461-6.103-6.577-9.207c-1.072-1.79-2.061-3.766-3.915-4.975
	c-0.308-0.032-0.581,0.16-0.706,0.439c0.346,0.79,1.151,1.386,1.59,2.139c1.136,1.904,2.124,3.842,1.956,6.292
	c-0.27,0.227-0.116,0.657-0.517,0.718c-0.607,0.195-1.049-0.282-1.322-0.718c-2.113-2.822-2.174-6.678-5.068-9.047
	c-0.096,0.035-0.151-0.017-0.195-0.078c-0.956,0.811-0.049,2.162-0.076,3.278v0.785c-1.59-2.871-3.243-5.798-6.565-7.254
	c-1.441-0.634-7.983-0.169-11.047,3.113c-0.105,0.11-0.401,0.029-0.369-0.264C75.053,53.878,78.183,47.979,91.267,50.958
	 M89.07,70.232c-4.574-1.424-8.527-4.336-12.883-6.187c-0.773-0.172-1.758-0.575-2.491,0c-0.555,0.802,0.668,0.959,0.988,1.473
	c-2.072-0.52-4.057,0.186-5.873,0.729c-0.398-0.073-0.936,0.151-1.224-0.198c-0.134-1.052,0.939-1.956,1.601-2.738
	c1.816-1.997,4.304-2.351,6.911-2.502l0.087,0.107L76.3,60.81c2.871,0.195,5.525,0.872,7.774,2.502
	c3.711,2.206,6.742,5.635,10.215,8.161C92.47,71.545,90.791,70.65,89.07,70.232 M115.871,82.132c0.352,1.88-0.881,6.132-1.604,6.173
	c-1.258,0-1.322-1.317-1.61-3.145c-0.119-2.18,1.285-4.162-0.398-4.775c-2.389,0.134-1.334,3.964-3.232,3.955
	c-1.011-0.029-2.081-1.09-3.38-1.465c-6.635-1.86-9.314,3.65-10.587,3.403c-2.334-0.529-0.48-1.988,0.023-2.72
	c1.613-2.168,5.746-3.993,9.213-4.787c2.714-0.619,4.508-2.322,8.373-2.322C116.601,77.017,115.563,80.482,115.871,82.132
	 M150.345,81.359c0.549,0.36,1.09,0.846,0.898,1.822c-0.203,0.959-0.863,0.323-1.616,0.122c-4.185-1.107-5.324-0.785-7.768,0.674
	c-1.651,0.988-2.075-0.759-2.709-1.994c-0.279-0.471-0.985-1.424-1.552-1.099c-0.372,0.291-0.276,1.962-0.078,2.398
	c0.227,1.543-0.509,2.903-1.395,3.412c-0.953,0.073-1.043-0.503-1.505-1.302c-1.412-2.453-1.863-7.489,0.913-8.393
	c1.953-0.637,6.324-0.331,8.335,1.842C146.982,80.83,149.696,80.947,150.345,81.359 M150.388,56.645
	c1.68-3.072,5.112-3.711,8.384-3.281c1.305,0.352,2.587,1.006,3.627,1.834c-0.029,0.84,1.11,0.886,1.221,1.686l-0.139,0.125
	C159.63,55.602,154.227,54.369,150.388,56.645 M161.252,64.599c-1.706-0.215-3.438-0.436-4.958-1.061
	c2.308-1.168,6.167-3.714,8.207-0.436C164.007,64.474,162.449,64.384,161.252,64.599"/>
<polyline class="st2" points="224.064,151.634 208.46,151.634 186.469,120.137 186.469,151.634 173.606,151.634 173.606,84.181 
	186.469,84.181 186.469,112.732 209.986,84.181 222.108,84.181 198.158,113.918 "/>
<path class="st2" d="M258.191,152.695c-21.404,0-33.195-12.424-33.195-34.985c0-10.953,2.578-19.556,7.661-25.563
	c5.007-5.914,12.395-9.041,21.369-9.041c3.165,0,11.201,1.165,17.118,2.162l2.034,0.349V98.18l-10.178-6.15
	c-1.848-1.075-5.682-2.194-8.881-2.194h-0.218c-12.854,0-14.752,14.973-14.967,28.019c-0.16,10.971,2.116,19.166,6.58,23.697
	c2.903,2.941,6.806,4.435,11.604,4.435c6.263,0,10.794-2.247,13.491-4.133l4.72-3.299l-1.799,11.201l-1.131,0.558
	C270.112,151.443,263.716,152.695,258.191,152.695"/>
<path class="st2" d="M309.57,151.634h-23.363V84.181h21.509c6.37,0,10.884,0.994,14.206,3.13c4.272,2.741,6.347,7.126,6.347,13.401
	c0,4.746-1.378,8.553-4.095,11.314l-1.668,1.703l1.898,1.441c4.508,3.424,6.888,9.105,6.888,16.438
	c0,6.234-2.369,11.456-6.853,15.106C320.538,149.888,315.257,151.634,309.57,151.634 M299.076,144.834h6.327
	c9.907,0,12.927-3.223,12.927-13.79c0-7.181-5.563-10.393-11.079-10.393h-8.175V144.834z M299.076,110.302h4.862
	c0.195,0,0.421,0.003,0.674,0.006c0.305,0.009,0.639,0.015,1,0.015c0.979,0,3.964,0,6.138-1.378c2.209-1.398,3.281-3.964,3.281-7.85
	c0-9.317-5.022-10.09-10.619-10.09h-5.336V110.302z"/>
</svg>